<svg width="280" height="56" viewBox="0 0 280 56" fill="none" xmlns="http://www.w3.org/2000/svg">
<path d="M18.064 55.9199C14.2941 55.9199 11.0478 55.0036 8.32515 53.171C5.65482 51.286 3.58662 48.799 2.12056 45.7098C0.706852 42.5682 0 39.1125 0 35.3426C0 31.5727 0.733032 28.1694 2.1991 25.1325C3.66516 22.0433 5.75954 19.6086 8.48223 17.8284C11.2049 15.9958 14.3988 15.0795 18.064 15.0795C20.5773 15.0795 22.9596 15.6031 25.2111 16.6503C27.5149 17.6975 29.4522 19.2159 31.023 21.2056V0H41.1545V54.9774H31.023V49.4011C29.714 51.5478 27.8814 53.171 25.5252 54.2705C23.169 55.3701 20.682 55.9199 18.064 55.9199ZM20.6558 47.1235C22.7502 47.1235 24.5566 46.6261 26.075 45.6312C27.6458 44.6364 28.8762 43.2751 29.7663 41.5472C30.6564 39.767 31.1015 37.7511 31.1015 35.4997C31.1015 32.7246 30.5517 30.4994 29.4522 28.8239C28.3526 27.096 26.9913 25.8394 25.3681 25.054C23.745 24.2686 22.148 23.8759 20.5773 23.8759C18.5352 23.8759 16.7288 24.3733 15.1581 25.3681C13.6396 26.363 12.4354 27.7243 11.5453 29.4522C10.6551 31.1277 10.2101 33.0912 10.2101 35.3426C10.2101 37.5417 10.6551 39.5314 11.5453 41.3116C12.4354 43.0918 13.6658 44.5055 15.2366 45.5527C16.8074 46.5999 18.6138 47.1235 20.6558 47.1235Z" fill="white"/>
<path d="M48.5887 54.9774V16.022H58.6417V54.9774H48.5887Z" fill="white"/>
<path d="M65.9901 54.9774V16.022H75.9645V20.4987C77.2735 18.6661 78.949 17.3048 80.991 16.4147C83.0331 15.5246 85.1798 15.0795 87.4312 15.0795C90.3634 15.0795 93.0861 15.7078 95.5993 16.9645C98.1649 18.1687 100.155 20.0798 101.568 22.6978C102.877 20.2893 104.684 18.4305 106.987 17.1215C109.344 15.7602 111.909 15.0795 114.684 15.0795C117.669 15.0795 120.365 15.7078 122.774 16.9645C125.235 18.1687 127.172 20.0275 128.586 22.5407C129.999 25.054 130.706 28.1955 130.706 31.9654V54.9774H120.732V33.3791C120.732 30.447 120.025 28.117 118.611 26.3891C117.198 24.6613 115.025 23.7974 112.093 23.7974C109.213 23.7974 107.04 24.6613 105.574 26.3891C104.108 28.117 103.375 30.447 103.375 33.3791V54.9774H93.4002V33.3791C93.4002 30.3946 92.641 28.0646 91.1226 26.3891C89.6565 24.6613 87.536 23.7974 84.7609 23.7974C82.4047 23.7974 80.3365 24.5566 78.5563 26.075C76.8285 27.5411 75.9645 29.9758 75.9645 33.3791V54.9774H65.9901Z" fill="white"/>
<path d="M155.78 55.9199C151.696 55.9199 148.162 55.0297 145.177 53.2495C142.245 51.4693 139.967 49.0346 138.344 45.9454C136.721 42.8562 135.91 39.3743 135.91 35.4997C135.91 31.3633 136.747 27.7767 138.423 24.7398C140.098 21.703 142.428 19.3468 145.413 17.6713C148.397 15.9434 151.853 15.0795 155.78 15.0795C159.655 15.0795 163.032 15.9173 165.911 17.5928C168.844 19.2683 171.121 21.5721 172.744 24.5042C174.42 27.4363 175.258 30.8135 175.258 34.6358C175.258 35.3164 175.231 35.9971 175.179 36.6778C175.127 37.3061 175.048 37.9082 174.943 38.4842H146.041C146.198 40.3167 146.669 41.9399 147.455 43.3536C148.293 44.7149 149.392 45.7883 150.753 46.5737C152.167 47.3067 153.764 47.6732 155.544 47.6732C157.377 47.6732 158.948 47.2806 160.257 46.4952C161.618 45.7098 162.691 44.5055 163.477 42.8824H174.237C173.504 45.1862 172.326 47.3329 170.702 49.3226C169.079 51.3122 167.011 52.9092 164.498 54.1135C162.037 55.3177 159.131 55.9199 155.78 55.9199ZM146.12 31.8083H164.89C164.838 29.1904 163.869 27.1222 161.985 25.6038C160.152 24.0853 157.979 23.3261 155.466 23.3261C153.319 23.3261 151.329 24.0068 149.497 25.3681C147.664 26.6771 146.538 28.8239 146.12 31.8083Z" fill="white"/>
<path d="M180.577 54.9774V0H190.63V54.9774H180.577Z" fill="white"/>
<path d="M216.381 55.9199C212.454 55.9199 208.946 55.0821 205.857 53.4066C202.82 51.6787 200.437 49.2702 198.71 46.181C196.982 43.0918 196.118 39.5314 196.118 35.4997C196.118 31.2586 197.034 27.6196 198.867 24.5827C200.752 21.4935 203.239 19.1374 206.328 17.5142C209.469 15.8911 212.925 15.0795 216.695 15.0795C220.622 15.0795 224.13 15.9434 227.219 17.6713C230.308 19.3468 232.743 21.703 234.523 24.7398C236.356 27.7767 237.272 31.3633 237.272 35.4997C237.272 39.4266 236.382 42.9347 234.602 46.0239C232.822 49.1131 230.361 51.5478 227.219 53.3281C224.13 55.0559 220.517 55.9199 216.381 55.9199ZM216.538 47.202C218.632 47.202 220.439 46.6784 221.957 45.6312C223.528 44.5317 224.758 43.0918 225.648 41.3116C226.539 39.479 226.984 37.4893 226.984 35.3426C226.984 32.8817 226.486 30.7873 225.491 29.0595C224.549 27.3316 223.292 26.0226 221.721 25.1325C220.151 24.2424 218.423 23.7974 216.538 23.7974C214.496 23.7974 212.689 24.2948 211.119 25.2896C209.6 26.2844 208.396 27.672 207.506 29.4522C206.668 31.18 206.249 33.1959 206.249 35.4997C206.249 37.8035 206.694 39.8455 207.584 41.6257C208.527 43.406 209.784 44.7935 211.354 45.7883C212.925 46.7308 214.653 47.202 216.538 47.202Z" fill="white"/>
<path d="M261.386 55.9199C257.459 55.9199 254.03 55.0559 251.098 53.3281C248.165 51.5478 245.888 49.1393 244.265 46.1025C242.642 43.0133 241.83 39.479 241.83 35.4997C241.83 31.5727 242.615 28.0646 244.186 24.9754C245.809 21.8862 248.087 19.4777 251.019 17.7498C253.951 15.9696 257.407 15.0795 261.386 15.0795C266.099 15.0795 270.078 16.2576 273.324 18.6138C276.623 20.9699 278.848 24.4518 280 29.0595H269.24C268.769 27.5411 267.853 26.2582 266.491 25.2111C265.182 24.1115 263.454 23.5617 261.308 23.5617C259.161 23.5617 257.407 24.1115 256.046 25.2111C254.684 26.3106 253.663 27.7767 252.983 29.6092C252.354 31.3895 252.04 33.3529 252.04 35.4997C252.04 37.6464 252.354 39.6361 252.983 41.4687C253.663 43.2489 254.684 44.6888 256.046 45.7883C257.407 46.8355 259.161 47.3591 261.308 47.3591C263.35 47.3591 265.025 46.914 266.334 46.0239C267.643 45.0815 268.612 43.7201 269.24 41.9399H280C279.319 44.872 278.089 47.3853 276.309 49.4796C274.581 51.574 272.434 53.171 269.868 54.2705C267.355 55.3701 264.528 55.9199 261.386 55.9199Z" fill="white"/>
<path d="M60.4974 0.773326L59.5867 0.137405L48.8116 6.83759L49.0863 8.38416L54.6367 8.19589L56.3715 13.4715L57.9181 13.1968L60.4974 0.773326Z" fill="white"/>
</svg>
